<svg width="36" height="25" viewBox="0 0 36 25" xmlns="http://www.w3.org/2000/svg"><g fill="none" fill-rule="evenodd"><path d="M0 0h36v25H0z"/><g fill-rule="nonzero"><path fill="#FF5F00" d="M13.85 5.71h7.301v12.579H13.85z"/><path d="M14.313 12c-.002-2.455 1.173-4.774 3.187-6.29-3.42-2.578-8.334-2.202-11.286.862-2.952 3.065-2.952 7.79 0 10.856 2.952 3.064 7.865 3.44 11.286.862-2.014-1.516-3.189-3.835-3.187-6.29z" fill="#EB001B"/><path d="M31 12c0 3.063-1.824 5.857-4.697 7.195-2.873 1.339-6.291.987-8.803-.905 2.012-1.517 3.187-3.836 3.187-6.29S19.512 7.227 17.5 5.71c2.512-1.892 5.93-2.244 8.803-.905C29.176 6.143 31 8.937 31 12z" fill="#F79E1B"/></g></g></svg>
