<svg width="33" height="10" viewBox="0 0 33 10" xmlns="http://www.w3.org/2000/svg"><g fill="#005186" fill-rule="evenodd"><path d="M11.479 9.742h2.609L15.72.166h-2.61zM20.984 4.01c-.912-.442-1.471-.738-1.465-1.186 0-.4.473-.824 1.5-.824a4.713 4.713 0 0 1 2.187.477L23.56.402a6.745 6.745 0 0 0-2.34-.4c-2.58 0-4.4 1.3-4.411 3.16-.014 1.376 1.3 2.144 2.287 2.6 1.016.469 1.358.768 1.353 1.187-.007.642-.811.936-1.562.936a5.715 5.715 0 0 1-2.793-.655l-.366 2.143c.93.344 1.915.517 2.907.51 2.744 0 4.525-1.283 4.545-3.27.005-1.09-.69-1.92-2.196-2.602z"/><path d="M30.248.175H28.23a1.3 1.3 0 0 0-1.367.794l-3.876 8.773h2.74s.449-1.18.55-1.44h3.343c.078.337.318 1.436.318 1.436h2.422L30.248.175zM27.03 6.348c.108-.277 1.173-3.012 1.386-3.591.352 1.65.009.049.78 3.59H27.03z" fill-rule="nonzero"/><path d="m9.29.173-2.556 6.53-.272-1.327-.915-4.4a1.093 1.093 0 0 0-1.184-.81H.153l-.032.2c.957.227 1.88.58 2.742 1.052l2.32 8.317h2.762L12.054.177 9.29.173z"/></g></svg>
